<svg id="Capa_1" enable-background="new 0 0 512.483 512.483" height="512" viewBox="0 0 512.483 512.483" width="512" xmlns="http://www.w3.org/2000/svg"><g id="XMLID_124_"><g id="COLORS_18_"><path id="XMLID_88_" d="m15.146 274.714c.419 7.967 7.001 14.211 14.979 14.211h452.232c7.978 0 14.56-6.245 14.979-14.211l7.603-144.399c.904-17.165-12.77-31.577-29.958-31.577h-437.48c-17.188 0-30.862 14.413-29.958 31.577z" fill="#b6e6fa"/><path d="m487.159 101.313-9.545 167.612h-462.773l.305 5.789c.419 7.967 7.001 14.211 14.979 14.211h452.232c7.978 0 14.56-6.245 14.979-14.211l7.604-144.399c.675-12.827-6.791-24.114-17.781-29.002z" fill="#94b7f7"/><path id="XMLID_122_" d="m53.149 228.732h406.185v60.193h-406.185z" fill="#ffb655"/><path id="XMLID_127_" d="m53.149 269.375h406.185v19.55h-406.185z" fill="#ff7956"/><path id="XMLID_71_" d="m462.377 318.336h-412.271c-6.585 0-12.4-4.295-14.337-10.588l-5.792-18.822h452.528l-5.792 18.822c-1.937 6.293-7.751 10.588-14.336 10.588z" fill="#94b7f7"/></g><g id="LINES_19_"><path d="m3.938 196.949h14.999v14.666h-14.999z" transform="matrix(.999 -.053 .053 .999 -10.731 .885)"/><path d="m248.741 406.579h15v14.666h-15z"/><path d="m248.741 377.247h15v14.666h-15z"/><path d="m248.741 347.915h15v14.666h-15z"/><path d="m192.569 377.247h15v14.666h-15z"/><path d="m192.569 406.579h15v14.666h-15z"/><path d="m192.569 347.915h15v14.666h-15z"/><path d="m136.398 377.247h15v14.666h-15z"/><path d="m136.398 347.915h15v14.666h-15z"/><path d="m136.398 406.579h15v14.666h-15z"/><path d="m80.226 406.579h15v14.666h-15z"/><path d="m80.226 347.915h15v14.666h-15z"/><path d="m80.226 377.247h15v14.666h-15z"/><path d="m304.913 377.247h15v14.666h-15z"/><path d="m304.913 347.915h15v14.666h-15z"/><path d="m304.913 406.579h15v14.666h-15z"/><path d="m361.085 377.247h15v14.666h-15z"/><path d="m361.085 347.915h15v14.666h-15z"/><path d="m361.085 406.579h15v14.666h-15z"/><path d="m417.257 347.915h15v14.666h-15z"/><path d="m417.257 406.579h15v14.666h-15z"/><path d="m417.257 377.247h15v14.666h-15z"/><path d="m201.276 184.377h109.93v15h-109.93z"/><path d="m502.187 102.928c-7.152-7.539-16.813-11.69-27.205-11.69h-437.481c-10.392 0-20.053 4.152-27.205 11.69-7.151 7.539-10.789 17.405-10.242 27.781l2.737 51.998 14.979-.789-2.737-51.998c-.328-6.226 1.854-12.146 6.146-16.669s10.089-7.014 16.323-7.014h437.48c6.234 0 12.032 2.491 16.323 7.014s6.474 10.443 6.146 16.669l-7.603 144.398c-.21 3.984-3.5 7.106-7.49 7.106h-15.523v-60.193h-421.186v60.193h-15.524c-3.99 0-7.28-3.122-7.49-7.105l-2.552-48.464-14.979.789 2.552 48.463c.522 9.901 7.39 18.007 16.532 20.505l4.413 14.34c2.923 9.5 11.564 15.882 21.504 15.882h412.271c9.939 0 18.581-6.382 21.504-15.882l4.413-14.34c9.143-2.498 16.01-10.604 16.532-20.505l7.603-144.398c.548-10.376-3.09-20.242-10.241-27.781zm-441.538 133.304h391.186v45.193h-391.186zm408.896 69.31c-.975 3.166-3.855 5.293-7.168 5.293h-412.271c-3.312 0-6.193-2.127-7.168-5.293l-2.805-9.117h5.516 421.186 5.516z"/><g fill="#fff"><path d="m106.986 123.86h14.666v15h-14.666z"/><path d="m77.654 123.86h14.666v15h-14.666z"/><path d="m48.322 123.86h14.666v15h-14.666z"/></g></g></g></svg>