<?xml version="1.0" encoding="iso-8859-1"?>
<!-- Generator: Adobe Illustrator 19.1.0, SVG Export Plug-In . SVG Version: 6.00 Build 0)  -->
<svg version="1.1" id="Capa_1" xmlns="http://www.w3.org/2000/svg" xmlns:xlink="http://www.w3.org/1999/xlink" x="0px" y="0px"
	 viewBox="0 0 483.312 483.312" style="enable-background:new 0 0 483.312 483.312;" xml:space="preserve">
<g id="XMLID_32_">
	<g>
		<path style="fill:#E2C744;" d="M338.156,121.832v122.23h-11v-123.91C330.826,120.683,334.486,121.243,338.156,121.832z"/>
		<path style="fill:#E2C744;" d="M279.486,115.253v128.81h-11v-129.4C272.156,114.823,275.816,115.022,279.486,115.253z"/>
		<path style="fill:#E2C744;" d="M220.816,114.423v129.64h-11v-129.16C213.486,114.702,217.156,114.552,220.816,114.423z"/>
		<path style="fill:#E2C744;" d="M162.156,119.323v124.74h-11v-123.17C154.816,120.342,158.486,119.812,162.156,119.323z"/>
		<path style="fill:#E55A42;" d="M371.146,269.562v3.78c0,5.78-4.71,10.5-10.5,10.5h-237.98c-5.79,0-10.5-4.72-10.5-10.5v-3.78
			c0-5.79,4.71-10.5,10.5-10.5h237.98C366.436,259.062,371.146,263.772,371.146,269.562z"/>
		<path style="fill:#E2C744;" d="M358.156,38.103v55.56c0,4.05-1.77,7.88-4.86,10.51c-3.11,2.63-7.2,3.76-11.22,3.1
			c-33.32-5.48-66.87-8.22-100.42-8.22c-33.56,0-67.11,2.74-100.43,8.22c-4.03,0.66-8.11-0.47-11.21-3.1
			c-3.09-2.63-4.86-6.46-4.86-10.51v-55.56c0-6.72,4.79-12.44,11.38-13.6c34.88-6.17,70-9.25,105.12-9.25s70.24,3.08,105.11,9.25
			C353.366,25.663,358.156,31.382,358.156,38.103z"/>
		<rect x="169.606" y="378.383" style="fill:#E2C744;" width="150.72" height="11.51"/>
		<rect x="140.886" y="298.842" style="fill:#E2C744;" width="13.72" height="169.22"/>
		<rect x="335.326" y="298.842" style="fill:#E2C744;" width="13.72" height="169.22"/>
		<path d="M386.146,269.562v3.78c0,12.9-9.64,23.59-22.1,25.26v176.96c0,4.15-3.36,7.5-7.5,7.5h-28.72c-4.14,0-7.5-3.35-7.5-7.5
			v-70.67h-150.72v70.67c0,4.15-3.35,7.5-7.5,7.5h-28.72c-4.14,0-7.5-3.35-7.5-7.5v-176.72h-3.22c-14.06,0-25.5-11.44-25.5-25.5
			v-3.78c0-14.06,11.44-25.5,25.5-25.5h13.49v-121.75c-5.79-0.57-11.32-2.87-15.85-6.71c-6.45-5.48-10.15-13.48-10.15-21.94v-55.56
			c0-14.01,10-25.94,23.77-28.38c71.48-12.63,143.97-12.63,215.45,0c13.78,2.44,23.78,14.37,23.78,28.38v55.56
			c0,8.46-3.7,16.46-10.16,21.94c-2.92,2.49-6.28,4.32-9.84,5.47v122.99h7.49C374.706,244.062,386.146,255.503,386.146,269.562z
			 M371.146,273.342v-3.78c0-5.79-4.71-10.5-10.5-10.5h-237.98c-5.79,0-10.5,4.71-10.5,10.5v3.78c0,5.78,4.71,10.5,10.5,10.5h237.98
			C366.436,283.842,371.146,279.122,371.146,273.342z M358.156,93.662v-55.56c0-6.72-4.79-12.44-11.39-13.6
			c-34.87-6.17-69.99-9.25-105.11-9.25s-70.24,3.08-105.12,9.25c-6.59,1.16-11.38,6.88-11.38,13.6v55.56
			c0,4.05,1.77,7.88,4.86,10.51c3.1,2.63,7.18,3.76,11.21,3.1c33.32-5.48,66.87-8.22,100.43-8.22c33.55,0,67.1,2.74,100.42,8.22
			c4.02,0.66,8.11-0.47,11.22-3.1C356.386,101.543,358.156,97.713,358.156,93.662z M349.046,468.062v-169.22h-13.72v169.22H349.046z
			 M338.156,244.062v-122.23c-3.67-0.59-7.33-1.15-11-1.68v123.91H338.156z M320.326,389.892v-11.51h-150.72v11.51H320.326z
			 M320.326,363.383v-64.54h-150.72v64.54H320.326z M312.156,244.062v-125.86c-5.89-0.69-11.78-1.3-17.67-1.82v127.68H312.156z
			 M279.486,244.062v-128.81c-3.67-0.23-7.33-0.43-11-0.59v129.4H279.486z M253.486,244.062v-129.89
			c-5.89-0.12-11.78-0.15-17.67-0.09v129.98H253.486z M220.816,244.062v-129.64c-3.66,0.13-7.33,0.28-11,0.48v129.16H220.816z
			 M194.816,244.062v-128.18c-5.89,0.46-11.78,1.01-17.66,1.64v126.54H194.816z M162.156,244.062v-124.74
			c-3.67,0.49-7.34,1.02-11,1.57v123.17H162.156z M154.606,468.062v-169.22h-13.72v169.22H154.606z"/>
	</g>
	<g>
	</g>
</g>
<g>
</g>
<g>
</g>
<g>
</g>
<g>
</g>
<g>
</g>
<g>
</g>
<g>
</g>
<g>
</g>
<g>
</g>
<g>
</g>
<g>
</g>
<g>
</g>
<g>
</g>
<g>
</g>
<g>
</g>
</svg>
