<?xml version="1.0" encoding="iso-8859-1"?>
<!-- Generator: Adobe Illustrator 19.1.0, SVG Export Plug-In . SVG Version: 6.00 Build 0)  -->
<svg version="1.1" id="Capa_1" xmlns="http://www.w3.org/2000/svg" xmlns:xlink="http://www.w3.org/1999/xlink" x="0px" y="0px"
	 viewBox="0 0 427.5 427.5" style="enable-background:new 0 0 427.5 427.5;" xml:space="preserve">
<g>
	<g id="XMLID_50_">
		<g>
			<rect x="221.25" y="221.25" style="fill:#E55A42;" width="146" height="88"/>
			<path d="M382.25,7.75v412c0,4.14-3.36,7.5-7.5,7.5h-322c-4.15,0-7.5-3.36-7.5-7.5v-412c0-4.14,3.35-7.5,7.5-7.5h322
				C378.89,0.25,382.25,3.61,382.25,7.75z M367.25,412.25v-88h-146v88H367.25z M367.25,309.25v-88h-146v88H367.25z M367.25,206.25
				v-88h-146v88H367.25z M367.25,103.25v-88h-146v88H367.25z M206.25,412.25v-397h-146v397H206.25z"/>
			<rect x="221.25" y="15.25" style="fill:#4785DD;" width="146" height="88"/>
			<path style="fill:#E2C744;" d="M206.25,15.25v397h-146v-397H206.25z M192.25,240.75v-54c0-4.14-3.36-7.5-7.5-7.5
				c-4.15,0-7.5,3.36-7.5,7.5v54c0,4.14,3.35,7.5,7.5,7.5C188.89,248.25,192.25,244.89,192.25,240.75z"/>
			<path d="M192.25,186.75v54c0,4.14-3.36,7.5-7.5,7.5c-4.15,0-7.5-3.36-7.5-7.5v-54c0-4.14,3.35-7.5,7.5-7.5
				C188.89,179.25,192.25,182.61,192.25,186.75z"/>
		</g>
		<g>
		</g>
	</g>
</g>
<g>
</g>
<g>
</g>
<g>
</g>
<g>
</g>
<g>
</g>
<g>
</g>
<g>
</g>
<g>
</g>
<g>
</g>
<g>
</g>
<g>
</g>
<g>
</g>
<g>
</g>
<g>
</g>
<g>
</g>
</svg>
