<?xml version="1.0" encoding="iso-8859-1"?>
<!-- Generator: Adobe Illustrator 19.1.0, SVG Export Plug-In . SVG Version: 6.00 Build 0)  -->
<svg version="1.1" id="Capa_1" xmlns="http://www.w3.org/2000/svg" xmlns:xlink="http://www.w3.org/1999/xlink" x="0px" y="0px"
	 viewBox="0 0 460.98 460.98" style="enable-background:new 0 0 460.98 460.98;" xml:space="preserve">
<g>
	<g id="XMLID_43_">
		<g>
			<path style="fill:#4785DD;" d="M297.925,19.14h-134.87c0.72-2.25,2.83-3.89,5.32-3.89h124.24
				C295.095,15.25,297.215,16.89,297.925,19.14z"/>
			<rect x="279.095" y="323.47" style="fill:#E55A42;" width="11.44" height="3.89"/>
			<rect x="279.095" y="279.86" style="fill:#E55A42;" width="11.44" height="3.89"/>
			<rect x="224.765" y="279.86" style="fill:#E55A42;" width="11.45" height="3.89"/>
			<rect x="224.765" y="323.47" style="fill:#E55A42;" width="11.45" height="3.89"/>
			<path d="M334.025,45.36v389.16c0,14.45-11.76,26.21-26.21,26.21h-154.65c-14.45,0-26.21-11.76-26.21-26.21V45.36
				c0-12.64,8.98-23.21,20.9-25.68c0.6-10.81,9.56-19.43,20.52-19.43h124.24c10.96,0,19.92,8.62,20.52,19.43
				C325.045,22.15,334.025,32.72,334.025,45.36z M319.025,434.52V45.36c0-6.19-5.03-11.22-11.21-11.22h-154.65
				c-6.18,0-11.21,5.03-11.21,11.22v389.16c0,6.18,5.03,11.21,11.21,11.21h154.65C313.995,445.73,319.025,440.7,319.025,434.52z
				 M163.055,19.14h134.87c-0.71-2.25-2.83-3.89-5.31-3.89h-124.24C165.885,15.25,163.775,16.89,163.055,19.14z"/>
			<path d="M305.535,315.97v18.89c0,4.15-3.35,7.5-7.5,7.5h-26.44c-4.14,0-7.5-3.35-7.5-7.5v-18.89c0-4.14,3.36-7.5,7.5-7.5h26.44
				C302.185,308.47,305.535,311.83,305.535,315.97z M290.535,327.36v-3.89h-11.44v3.89H290.535z"/>
			<path d="M305.535,272.36v18.89c0,4.15-3.35,7.5-7.5,7.5h-26.44c-4.14,0-7.5-3.35-7.5-7.5v-18.89c0-4.14,3.36-7.5,7.5-7.5h26.44
				C302.185,264.86,305.535,268.22,305.535,272.36z M290.535,283.75v-3.89h-11.44v3.89H290.535z"/>
			<path d="M305.535,228.75v18.89c0,4.14-3.35,7.5-7.5,7.5h-26.44c-4.14,0-7.5-3.36-7.5-7.5v-18.89c0-4.14,3.36-7.5,7.5-7.5h26.44
				C302.185,221.25,305.535,224.61,305.535,228.75z M290.535,240.14v-3.89h-11.44v3.89H290.535z"/>
			<path d="M305.535,185.14v18.89c0,4.14-3.35,7.5-7.5,7.5h-26.44c-4.14,0-7.5-3.36-7.5-7.5v-18.89c0-4.14,3.36-7.5,7.5-7.5h26.44
				C302.185,177.64,305.535,181,305.535,185.14z M290.535,196.53v-3.89h-11.44v3.89H290.535z"/>
			<path d="M305.535,80.19v18.89c0,4.15-3.35,7.5-7.5,7.5h-26.44c-4.14,0-7.5-3.35-7.5-7.5V80.19c0-4.14,3.36-7.5,7.5-7.5h26.44
				C302.185,72.69,305.535,76.05,305.535,80.19z M290.535,91.58v-3.89h-11.44v3.89H290.535z"/>
			<rect x="279.095" y="236.25" style="fill:#E55A42;" width="11.44" height="3.89"/>
			<rect x="279.095" y="192.64" style="fill:#E55A42;" width="11.44" height="3.89"/>
			<rect x="279.095" y="87.69" style="fill:#E55A42;" width="11.44" height="3.89"/>
			<path d="M251.215,315.97v18.89c0,4.15-3.36,7.5-7.5,7.5h-26.45c-4.14,0-7.5-3.35-7.5-7.5v-18.89c0-4.14,3.36-7.5,7.5-7.5h26.45
				C247.855,308.47,251.215,311.83,251.215,315.97z M236.215,327.36v-3.89h-11.45v3.89H236.215z"/>
			<path d="M251.215,272.36v18.89c0,4.15-3.36,7.5-7.5,7.5h-26.45c-4.14,0-7.5-3.35-7.5-7.5v-18.89c0-4.14,3.36-7.5,7.5-7.5h26.45
				C247.855,264.86,251.215,268.22,251.215,272.36z M236.215,283.75v-3.89h-11.45v3.89H236.215z"/>
			<path d="M251.215,228.75v18.89c0,4.14-3.36,7.5-7.5,7.5h-26.45c-4.14,0-7.5-3.36-7.5-7.5v-18.89c0-4.14,3.36-7.5,7.5-7.5h26.45
				C247.855,221.25,251.215,224.61,251.215,228.75z M236.215,240.14v-3.89h-11.45v3.89H236.215z"/>
			<path d="M251.215,185.14v18.89c0,4.14-3.36,7.5-7.5,7.5h-26.45c-4.14,0-7.5-3.36-7.5-7.5v-18.89c0-4.14,3.36-7.5,7.5-7.5h26.45
				C247.855,177.64,251.215,181,251.215,185.14z M236.215,196.53v-3.89h-11.45v3.89H236.215z"/>
			<rect x="224.765" y="236.25" style="fill:#E55A42;" width="11.45" height="3.89"/>
			<rect x="224.765" y="192.64" style="fill:#E55A42;" width="11.45" height="3.89"/>
			<path d="M196.895,315.97v18.89c0,4.15-3.36,7.5-7.5,7.5h-26.45c-4.14,0-7.5-3.35-7.5-7.5v-18.89c0-4.14,3.36-7.5,7.5-7.5h26.45
				C193.535,308.47,196.895,311.83,196.895,315.97z M181.895,327.36v-3.89h-11.45v3.89H181.895z"/>
			<path d="M196.895,272.36v18.89c0,4.15-3.36,7.5-7.5,7.5h-26.45c-4.14,0-7.5-3.35-7.5-7.5v-18.89c0-4.14,3.36-7.5,7.5-7.5h26.45
				C193.535,264.86,196.895,268.22,196.895,272.36z M181.895,283.75v-3.89h-11.45v3.89H181.895z"/>
			<path d="M196.895,228.75v18.89c0,4.14-3.36,7.5-7.5,7.5h-26.45c-4.14,0-7.5-3.36-7.5-7.5v-18.89c0-4.14,3.36-7.5,7.5-7.5h26.45
				C193.535,221.25,196.895,224.61,196.895,228.75z M181.895,240.14v-3.89h-11.45v3.89H181.895z"/>
			<path d="M196.895,185.14v18.89c0,4.14-3.36,7.5-7.5,7.5h-26.45c-4.14,0-7.5-3.36-7.5-7.5v-18.89c0-4.14,3.36-7.5,7.5-7.5h26.45
				C193.535,177.64,196.895,181,196.895,185.14z M181.895,196.53v-3.89h-11.45v3.89H181.895z"/>
			<path d="M175.175,65.44c13.43,0,24.36,10.93,24.36,24.36s-10.93,24.35-24.36,24.35c-13.43,0-24.36-10.92-24.36-24.35
				S161.745,65.44,175.175,65.44z M184.535,89.8c0-5.16-4.2-9.36-9.36-9.36s-9.36,4.2-9.36,9.36c0,5.16,4.2,9.35,9.36,9.35
				S184.535,94.96,184.535,89.8z"/>
			<path style="fill:#E2C744;" d="M175.175,80.44c5.16,0,9.36,4.2,9.36,9.36c0,5.16-4.2,9.35-9.36,9.35s-9.36-4.19-9.36-9.35
				C165.815,84.64,170.015,80.44,175.175,80.44z"/>
			<rect x="170.445" y="323.47" style="fill:#E55A42;" width="11.45" height="3.89"/>
			<rect x="170.445" y="279.86" style="fill:#E55A42;" width="11.45" height="3.89"/>
			<rect x="170.445" y="236.25" style="fill:#E55A42;" width="11.45" height="3.89"/>
			<rect x="170.445" y="192.64" style="fill:#E55A42;" width="11.45" height="3.89"/>
		</g>
		<g>
		</g>
	</g>
</g>
<g>
</g>
<g>
</g>
<g>
</g>
<g>
</g>
<g>
</g>
<g>
</g>
<g>
</g>
<g>
</g>
<g>
</g>
<g>
</g>
<g>
</g>
<g>
</g>
<g>
</g>
<g>
</g>
<g>
</g>
</svg>
