<svg id="Capa_1" enable-background="new 0 0 512 512" height="512" viewBox="0 0 512 512" width="512" xmlns="http://www.w3.org/2000/svg"><g><g clip-rule="evenodd" fill-rule="evenodd"><path d="m153.512 451.848h204.977c3.203 0 5.81 2.608 5.81 5.811v41.018c0 3.203-2.607 5.84-5.81 5.84h-204.977c-3.203 0-5.838-2.637-5.838-5.84v-41.018c0-3.203 2.635-5.811 5.838-5.811z" fill="#dc4655"/><path d="m329.348 451.848h29.141c3.203 0 5.81 2.608 5.81 5.811v41.018c0 3.203-2.607 5.84-5.81 5.84h-29.141c3.203 0 5.84-2.637 5.84-5.84v-41.018c0-3.203-2.637-5.811-5.84-5.811z" fill="#d82e3d"/><path d="m169.074 131.501h173.822c3.203 0 5.84-2.608 5.84-5.811v-112.367c0-3.203-2.637-5.812-5.84-5.812h-173.822c-3.203 0-5.811 2.608-5.811 5.812v112.367c.001 3.203 2.608 5.811 5.811 5.811z" fill="#dc4655"/><path d="m313.785 131.501h29.111c3.203 0 5.84-2.608 5.84-5.811v-112.367c0-3.203-2.637-5.812-5.84-5.812h-29.111c3.203 0 5.811 2.608 5.811 5.812v112.367c0 3.203-2.608 5.811-5.811 5.811z" fill="#d82e3d"/><path d="m147.674 119.085h216.625c21.373 0 38.836 17.461 38.836 38.806v56.382l-9.326 85.324 9.326 79.003v56.381c0 21.345-17.463 38.835-38.836 38.835h-216.625c-21.348 0-38.809-17.49-38.809-38.835v-56.381l8.137-82.489-8.137-81.837v-56.382c0-21.346 17.461-38.807 38.809-38.807z" fill="#e6646e"/><path d="m335.188 119.085h29.111c21.373 0 38.836 17.461 38.836 38.806v277.09c0 21.345-17.463 38.835-38.836 38.835h-29.111c21.344 0 38.834-17.49 38.834-38.835v-277.09c0-21.345-17.491-38.806-38.834-38.806z" fill="#dc4655"/><path d="m163.264 39.09h17.49c8.957 0 16.328 7.342 16.328 16.299v15.79c0 8.986-7.371 16.328-16.328 16.328h-17.49z" fill="#cbe2ff"/><path d="m348.736 39.09h-17.49c-8.984 0-16.326 7.342-16.326 16.299v15.79c0 8.986 7.342 16.328 16.326 16.328h17.49z" fill="#bed8fb"/><path d="m239.119 39.09h33.732v79.995h-33.732z" fill="#cbe2ff"/><path d="m109.518 442.153c-.426-2.325-.652-4.734-.652-7.172v-24.718h137.568c8.787 0 15.959 7.172 15.959 15.931 0 8.787-7.172 15.959-15.959 15.959zm292.935-291.433c.455 2.325.682 4.734.682 7.171v24.747h-137.596c-8.76 0-15.932-7.2-15.932-15.96 0-8.788 7.172-15.959 15.932-15.959h136.914z" fill="#dc4655"/><path d="m108.865 214.273h294.27v164.327h-294.27z" fill="#ffe17d"/><path d="m374.022 214.273h29.113v164.327h-29.113z" fill="#ffc369"/></g><path d="m341.225 46.574h-9.979c-2.408 0-4.619.992-6.236 2.608-1.586 1.587-2.578 3.798-2.578 6.208v15.79c0 2.41.992 4.621 2.578 6.236 1.617 1.588 3.828 2.58 6.236 2.58h9.979zm-68.231 339.538c-4.168 0-7.512-3.373-7.512-7.512s3.344-7.512 7.512-7.512h122.629v-149.302h-279.273v149.302h122.656c4.139 0 7.512 3.374 7.512 7.512s-3.373 7.512-7.512 7.512h-122.656v16.639h130.084c6.463 0 12.33 2.637 16.582 6.889 4.225 4.252 6.859 10.12 6.859 16.555 0 6.463-2.635 12.331-6.859 16.583-4.252 4.252-10.119 6.888-16.582 6.888h-43.824c-4.139 0-7.512-3.373-7.512-7.512s3.373-7.512 7.512-7.512h43.824c2.324 0 4.422-.936 5.953-2.466 1.559-1.559 2.494-3.657 2.494-5.981 0-2.296-.936-4.422-2.494-5.953-1.531-1.531-3.629-2.494-5.953-2.494h-130.084v16.895h52.271c4.168 0 7.512 3.373 7.512 7.512s-3.344 7.512-7.512 7.512h-48.586c1.473 2.722 3.344 5.245 5.527 7.427 5.697 5.697 13.521 9.212 22.111 9.212h216.625c8.617 0 16.441-3.515 22.139-9.212 5.67-5.669 9.185-13.494 9.185-22.111v-48.87h-122.628zm-156.644-179.322h279.273v-16.668h-52.271c-4.139 0-7.484-3.345-7.484-7.483 0-4.167 3.346-7.512 7.484-7.512h52.271v-16.895h-130.084c-2.297 0-4.422.964-5.953 2.495s-2.494 3.628-2.494 5.953.963 4.422 2.494 5.953 3.656 2.495 5.953 2.495h43.854c4.139 0 7.482 3.345 7.482 7.512 0 4.138-3.344 7.483-7.482 7.483h-43.854c-6.436 0-12.303-2.637-16.555-6.889-4.252-4.224-6.889-10.091-6.889-16.554s2.637-12.331 6.889-16.554c4.252-4.252 10.119-6.889 16.555-6.889h126.426c-1.473-2.749-3.344-5.272-5.527-7.455-5.697-5.669-13.522-9.212-22.139-9.212-72.199 0-144.398 0-216.625 0-8.59 0-16.414 3.543-22.111 9.212-5.67 5.669-9.213 13.521-9.213 22.11zm94.195 74.75c0 4.139-3.373 7.483-7.512 7.483s-7.482-3.345-7.482-7.483c0-6.237-2.58-11.906-6.689-16.016-4.111-4.11-9.779-6.661-15.988-6.661-6.236 0-11.906 2.551-16.016 6.661-4.109 4.11-6.662 9.779-6.662 16.016v29.792c0 6.236 2.553 11.906 6.662 16.017 4.109 4.11 9.779 6.661 16.016 6.661 6.209 0 11.877-2.551 15.988-6.661 3.061-3.061 5.244-6.973 6.18-11.31h-7.031c-4.109 0-7.455-3.345-7.455-7.484 0-4.11 3.346-7.455 7.455-7.455h14.373c4.393 0 8.162 3.033 8.162 7.455v2.778c0 10.376-4.252 19.787-11.055 26.618-6.832 6.831-16.271 11.055-26.617 11.055-10.375 0-19.785-4.224-26.617-11.055-6.832-6.832-11.055-16.243-11.055-26.618v-29.793c0-10.375 4.223-19.786 11.055-26.618s16.242-11.055 26.617-11.055c10.346 0 19.785 4.224 26.617 11.055 6.802 6.832 11.054 16.243 11.054 26.618zm90.91 37.446c0-4.139 3.344-7.512 7.512-7.512 4.139 0 7.482 3.373 7.482 7.512 0 4.111 1.701 7.881 4.422 10.602 2.723 2.721 6.492 4.422 10.631 4.422h15.25c4.139 0 7.881-1.701 10.631-4.422 2.721-2.721 4.422-6.491 4.422-10.602 0-4.139-1.701-7.909-4.422-10.63-2.836-2.806-6.633-4.451-10.631-4.451h-15.25c-8.277 0-15.789-3.345-21.233-8.787-5.441-5.442-8.814-12.954-8.814-21.204 0-8.277 3.373-15.789 8.814-21.231 5.443-5.442 12.955-8.816 21.233-8.816h15.25c8.277 0 15.789 3.373 21.232 8.816 5.441 5.442 8.814 12.954 8.814 21.231 0 4.139-3.373 7.484-7.512 7.484s-7.482-3.345-7.482-7.484-1.701-7.909-4.422-10.63c-2.75-2.722-6.492-4.422-10.631-4.422h-15.25c-4.139 0-7.908 1.7-10.631 4.422-2.721 2.721-4.422 6.491-4.422 10.63 0 4.11 1.701 7.881 4.422 10.602 2.836 2.835 6.605 4.45 10.631 4.45h15.25c8.277 0 15.789 3.345 21.232 8.788 5.441 5.442 8.814 12.954 8.814 21.231 0 8.249-3.373 15.761-8.814 21.204-5.443 5.442-12.955 8.816-21.232 8.816h-15.25c-8.277 0-15.789-3.374-21.233-8.816-5.44-5.441-8.813-12.954-8.813-21.203zm-68.346 24.237c-.936 4.025-4.959 6.52-8.984 5.584-4.025-.935-6.52-4.96-5.584-8.986 7.029-30.047 14.031-60.095 21.061-90.143.793-3.401 3.826-5.811 7.312-5.811h18.172c3.684 0 6.773 2.664 7.369 6.18 7.002 29.934 14.004 59.84 21.004 89.774.935 4.025-1.559 8.051-5.584 8.986-4.053.936-8.078-1.559-9.014-5.584l-6.35-27.156h-33.053zm19.731-84.36-9.865 42.18h26.051l-9.893-42.18zm118.97 221.842v23.812c0 4.138-3.373 7.483-7.512 7.483h-216.624c-4.139 0-7.484-3.345-7.484-7.483v-23.812c-9.75-1.616-18.512-6.293-25.229-13.011-8.391-8.391-13.607-19.956-13.607-32.712v-220.709-56.382c0-12.728 5.217-24.321 13.607-32.712 8.391-8.391 19.984-13.607 32.713-13.607h8.078v-104.06c0-4.138 3.373-7.512 7.512-7.512h75.742c4.139 0 7.512 3.374 7.512 7.512 0 4.139-3.373 7.484-7.512 7.484h-68.23v16.583h9.979c6.547 0 12.5 2.665 16.809 7.002 4.338 4.309 7.002 10.262 7.002 16.809v15.79c0 6.548-2.664 12.501-7.002 16.837-4.309 4.309-10.262 6.974-16.809 6.974h-9.979v16.583h60.861v-65h-5.273c-4.139 0-7.482-3.345-7.482-7.483 0-4.167 3.344-7.512 7.482-7.512h59.244c4.139 0 7.512 3.345 7.512 7.512 0 4.139-3.373 7.483-7.512 7.483h-5.244v64.999h60.861v-16.583h-9.979c-6.547 0-12.529-2.664-16.838-6.974-4.309-4.337-6.973-10.29-6.973-16.837v-15.789c0-6.548 2.664-12.5 6.973-16.809 4.309-4.337 10.291-7.002 16.838-7.002h9.979v-16.583h-68.23c-4.168 0-7.512-3.345-7.512-7.484 0-4.138 3.344-7.512 7.512-7.512h75.742c4.139 0 7.484 3.374 7.484 7.512v104.061h8.078c12.756 0 24.35 5.216 32.74 13.607 8.391 8.391 13.607 19.984 13.607 32.712v56.382 220.708c0 12.756-5.217 24.322-13.607 32.712-6.717 6.718-15.477 11.395-25.229 13.011zm-216.624.595v15.704h201.629v-15.704zm110.183-434.726h-18.738v64.999h18.738zm-84.615 0h-9.979v33.421h9.979c2.408 0 4.619-.992 6.207-2.58 1.617-1.615 2.607-3.826 2.607-6.236v-15.789c0-2.41-.99-4.621-2.607-6.208-1.588-1.616-3.799-2.608-6.207-2.608z"/></g></svg>