<svg id="Capa_1" enable-background="new 0 0 517 517" height="512" viewBox="0 0 517 517" width="512" xmlns="http://www.w3.org/2000/svg"><g><g><path clip-rule="evenodd" d="m220.474 23.455c-50.598 0-95.094 26.077-120.803 65.545 13.532 6.215 29.721 11.075 47.378 14.55 13.39-47.463 41.246-80.095 73.425-80.095z" fill="#98eaf9" fill-rule="evenodd"/></g><g><path clip-rule="evenodd" d="m220.474 110.162v-86.707c-32.178 0-60.034 32.631-73.426 80.095 22.827 4.493 48.14 6.725 73.426 6.612z" fill="#cbf4fb" fill-rule="evenodd"/></g><g><path clip-rule="evenodd" d="m293.701 102.901c-13.448-47.096-41.191-79.445-73.228-79.445v86.706c25.286-.085 50.542-2.515 73.228-7.261z" fill="#98eaf9" fill-rule="evenodd"/></g><g><path clip-rule="evenodd" d="m340.429 87.758c-25.794-38.762-69.894-64.302-119.956-64.302 32.037 0 59.78 32.349 73.228 79.445 17.516-3.645 33.478-8.702 46.728-15.143z" fill="#cbf4fb" fill-rule="evenodd"/></g><g><path clip-rule="evenodd" d="m364.5 167.485c0-29.495-8.871-56.9-24.07-79.728-13.25 6.442-29.212 11.499-46.728 15.143 5.537 19.438 8.673 41.361 8.673 64.585z" fill="#98eaf9" fill-rule="evenodd"/></g><g><path clip-rule="evenodd" d="m293.701 102.901c-22.686 4.746-47.943 7.176-73.228 7.261v57.324h81.901c.001-23.224-3.135-45.148-8.673-64.585z" fill="#cbf4fb" fill-rule="evenodd"/></g><g><path clip-rule="evenodd" d="m220.474 110.162c-25.285.113-50.598-2.119-73.426-6.611-5.424 19.268-8.475 40.966-8.475 63.935h81.901z" fill="#98eaf9" fill-rule="evenodd"/></g><g><path clip-rule="evenodd" d="m147.048 103.551c-17.657-3.475-33.845-8.334-47.378-14.55-14.691 22.574-23.223 49.526-23.223 78.485h62.125c0-22.97 3.052-44.667 8.476-63.935z" fill="#cbf4fb" fill-rule="evenodd"/></g><g><path clip-rule="evenodd" d="m143.799 218.283c-3.39-15.793-5.227-32.914-5.227-50.798h-62.125c0 17.884 3.249 35.005 9.21 50.798z" fill="#98eaf9" fill-rule="evenodd"/></g><g><path clip-rule="evenodd" d="m220.474 167.485h-81.901c0 17.884 1.836 35.005 5.227 50.798h76.675v-50.798z" fill="#cbf4fb" fill-rule="evenodd"/></g><g><path clip-rule="evenodd" d="m302.375 167.485h-81.901v50.798h76.646c3.39-15.793 5.255-32.914 5.255-50.798z" fill="#98eaf9" fill-rule="evenodd"/></g><g><path clip-rule="evenodd" d="m355.261 218.283c5.961-15.793 9.238-32.914 9.238-50.798h-62.125c0 17.884-1.865 35.005-5.255 50.798z" fill="#cbf4fb" fill-rule="evenodd"/></g><g><path clip-rule="evenodd" d="m23.052 218.283c-7.176 0-13.052 5.876-13.052 13.053v159.427c0 7.204 5.876 13.081 13.052 13.081h366.535l41.36-13.137v-159.372c0-7.176-5.876-13.053-13.08-13.053-131.596.001-263.191.001-394.815.001z" fill="#a0e5a5" fill-rule="evenodd"/></g><g><path d="m387.242 373.783 7.035 89.984 24.691-24.693 54.469 54.47 16.782-16.781 16.781-16.782-54.469-54.471 24.692-24.692z" fill="#fff"/></g><g><path d="m124.895 271.987-8.105 40.716-12.902-41.851c-1.627-5.278-7.226-8.234-12.502-6.61-3.57 1.101-6.072 4.02-6.819 7.426l-12.708 41.073-8.088-40.883c-1.072-5.417-6.329-8.938-11.751-7.869-5.417 1.071-8.941 6.332-7.869 11.75 0 0 14.75 74.366 14.917 74.833 1.666 4.647 6.079 7.745 11.011 7.745.044 0 .089 0 .133-.001 4.976-.056 9.376-3.265 10.95-7.985.022-.068.044-.137.066-.205l13.109-42.37 13.068 42.388c.044.145.092.288.144.431 1.667 4.646 6.074 7.742 10.996 7.742.044 0 .089 0 .134-.001 4.967-.057 9.361-3.266 10.934-7.985.132-.396 14.898-74.439 14.898-74.439 1.078-5.416-2.438-10.682-7.855-11.76-5.42-1.076-10.683 2.438-11.761 7.855z"/><path d="m270.652 275.892c1.078-5.416-2.438-10.682-7.855-11.76-5.417-1.076-10.681 2.438-11.76 7.855l-8.111 40.747-12.895-41.878c-1.625-5.278-7.223-8.237-12.5-6.615-3.573 1.101-6.078 4.021-6.823 7.43l-12.713 41.039-8.082-40.852c-1.072-5.418-6.332-8.945-11.751-7.869-5.417 1.071-8.941 6.333-7.869 11.75 0 0 14.75 74.366 14.918 74.833 1.666 4.646 6.074 7.745 10.997 7.745.043 0 .087 0 .13-.001 4.968-.055 9.363-3.263 10.937-7.982.022-.068.044-.137.066-.205l13.127-42.373 13.051 42.385c.044.146.092.289.144.432 1.666 4.647 6.079 7.745 11.011 7.745.044 0 .089 0 .133-.001 4.977-.056 9.376-3.265 10.95-7.985.129-.397 14.895-74.44 14.895-74.44z"/><path d="m322.271 358.316c.044.001.088.001.132.001 4.922 0 9.331-3.099 10.997-7.745.051-.143.099-.286.144-.432l13.051-42.385 13.127 42.373c.021.068.043.137.066.205 1.574 4.72 5.969 7.928 10.937 7.982.043.001.086.001.13.001 4.922 0 9.331-3.099 10.997-7.745.167-.467 14.918-74.833 14.918-74.833 1.072-5.417-2.452-10.679-7.869-11.75-5.421-1.071-10.679 2.452-11.751 7.869l-8.082 40.852-12.713-41.039c-.746-3.409-3.251-6.33-6.823-7.43-5.28-1.626-10.875 1.335-12.5 6.615l-12.878 41.821-8.1-40.69c-1.078-5.417-6.345-8.93-11.76-7.855-5.417 1.078-8.934 6.344-7.855 11.76 0 0 14.766 74.044 14.898 74.439 1.572 4.722 5.966 7.931 10.934 7.986z"/><path d="m220.474 393.844c-5.523 0-10 4.478-10 10s4.477 10 10 10h.028c5.523 0 9.986-4.478 9.986-10s-4.491-10-10.014-10z"/><path d="m514.071 452.909-47.398-47.398 17.621-17.621c2.76-2.76 3.662-6.873 2.31-10.535-1.352-3.661-4.71-6.201-8.602-6.506l-37.056-2.897v-136.616c0-12.711-10.354-23.053-23.08-23.053h-48.849c3.64-13.24 5.482-26.909 5.482-40.798 0-84.933-69.096-154.03-154.026-154.03s-154.026 69.098-154.026 154.03c0 13.916 1.835 27.584 5.459 40.798h-48.854c-12.711 0-23.052 10.342-23.052 23.053v159.427c0 12.727 10.341 23.081 23.052 23.081h152.671c5.523 0 10-4.478 10-10s-4.477-10-10-10h-152.671c-1.654 0-3.052-1.411-3.052-3.081v-159.427c0-1.654 1.398-3.053 3.052-3.053h274.04c.012 0 .025.002.037.002.015 0 .03-.002.045-.002h58.02c.022 0 .044.003.066.003.026 0 .051-.003.077-.003h62.53c1.669 0 3.08 1.398 3.08 3.053v135.052l-32.925-2.574c-2.908-.229-5.783.832-7.85 2.898-2.067 2.067-3.126 4.936-2.899 7.851l1.507 19.281h-113.556c-5.523 0-10 4.478-10 10s4.477 10 10 10h115.12l3.964 50.702c.304 3.892 2.845 7.25 6.506 8.602 3.66 1.354 7.774.451 10.535-2.31l17.621-17.621 47.397 47.399c1.875 1.875 4.419 2.929 7.071 2.929s5.196-1.054 7.071-2.929l33.563-33.564c3.904-3.906 3.904-10.238-.001-14.143zm-421.304-244.626c-3.188-9.975-5.178-20.281-5.949-30.798h41.96c.39 10.482 1.38 20.782 2.987 30.798zm36.015-50.798h-41.962c1.496-20.19 7.488-39.147 16.971-55.878 9.488 3.739 19.92 6.913 31.014 9.52-3.383 14.683-5.422 30.287-6.023 46.358zm-13.531-72.923c12.785-16.189 29.221-29.365 48.052-38.283-3.314 4.397-6.469 9.199-9.434 14.413-5.38 9.461-9.945 19.944-13.672 31.166-8.86-2.049-17.228-4.485-24.946-7.296zm95.223 123.721h-58.418c-1.75-9.969-2.841-20.272-3.264-30.798h61.682zm0-50.798h-61.692c.622-14.882 2.619-29.171 5.743-42.424 17.844 2.97 36.825 4.643 55.949 5.016zm0-57.439c-17.208-.35-34.281-1.791-50.342-4.332 11.188-32.09 29.484-55.205 50.342-60.892zm20-65.224c20.742 5.656 38.948 28.548 50.152 60.36-15.92 2.688-32.931 4.281-50.152 4.779zm58.392 173.461h-58.392v-30.798h61.679c-.427 10.492-1.526 20.794-3.287 30.798zm-58.392-50.798v-37.494c19.156-.532 38.096-2.368 55.811-5.502 3.203 13.413 5.249 27.9 5.88 42.997h-61.691zm56.604-96.793c-2.965-5.214-6.12-10.017-9.434-14.414 18.443 8.735 34.584 21.557 47.253 37.291-7.508 2.884-15.69 5.398-24.392 7.53-3.681-10.936-8.167-21.157-13.427-30.407zm61.075 147.591h-38.996c1.618-10.045 2.616-20.345 3.009-30.798h41.959c-.775 10.496-2.773 20.803-5.972 30.798zm-35.988-50.798c-.612-16.359-2.706-32.24-6.198-47.151 10.982-2.724 21.256-6.015 30.54-9.867 9.861 17.007 16.091 36.368 17.621 57.018zm161.272 321.917-47.397-47.399c-1.875-1.875-4.419-2.929-7.071-2.929s-5.196 1.054-7.071 2.929l-9.343 9.344-4.431-56.683 56.68 4.432-9.344 9.344c-3.905 3.905-3.905 10.237 0 14.143l47.398 47.398z"/></g></g></svg>