<?xml version="1.0" encoding="iso-8859-1"?>
<!-- Generator: Adobe Illustrator 19.1.0, SVG Export Plug-In . SVG Version: 6.00 Build 0)  -->
<svg version="1.1" id="Capa_1" xmlns="http://www.w3.org/2000/svg" xmlns:xlink="http://www.w3.org/1999/xlink" x="0px" y="0px"
	 viewBox="0 0 444.5 444.5" style="enable-background:new 0 0 444.5 444.5;" xml:space="preserve">
<g>
	<g id="XMLID_35_">
		<g>
			<rect x="33.39" y="131.75" style="fill:#E2C744;" width="13.72" height="217"/>
			<rect x="15.25" y="95.75" style="fill:#E2C744;" width="414" height="21"/>
			<rect x="397.39" y="131.75" style="fill:#E2C744;" width="13.72" height="217"/>
			<path d="M444.25,88.25v36c0,4.14-3.36,7.5-7.5,7.5h-10.64v224.5c0,4.14-3.36,7.5-7.5,7.5h-28.72c-4.14,0-7.5-3.36-7.5-7.5V189.2
				H62.11v167.05c0,4.14-3.36,7.5-7.5,7.5H25.89c-4.14,0-7.5-3.36-7.5-7.5v-224.5H7.75c-4.14,0-7.5-3.36-7.5-7.5v-36
				c0-4.14,3.36-7.5,7.5-7.5h429C440.89,80.75,444.25,84.11,444.25,88.25z M429.25,116.75v-21h-414v21H429.25z M411.11,348.75v-217
				h-13.72v217H411.11z M382.38,174.2v-42.45h-58.52v42.45H382.38z M308.86,174.2v-42.45H135.64v42.45H308.86z M120.64,174.2v-42.45
				H62.11v42.45H120.64z M47.11,348.75v-217H33.39v217H47.11z"/>
			<path d="M227.55,147.67c1.4,1.4,2.2,3.33,2.2,5.3c0,1.98-0.8,3.91-2.2,5.31c-1.4,1.39-3.33,2.19-5.3,2.19
				c-1.98,0-3.91-0.8-5.31-2.19c-1.39-1.4-2.19-3.33-2.19-5.31c0-1.97,0.8-3.9,2.19-5.3c1.4-1.39,3.33-2.19,5.31-2.19
				C224.22,145.48,226.15,146.28,227.55,147.67z"/>
		</g>
		<g>
		</g>
	</g>
</g>
<g>
</g>
<g>
</g>
<g>
</g>
<g>
</g>
<g>
</g>
<g>
</g>
<g>
</g>
<g>
</g>
<g>
</g>
<g>
</g>
<g>
</g>
<g>
</g>
<g>
</g>
<g>
</g>
<g>
</g>
</svg>
