<?xml version="1.0" encoding="iso-8859-1"?>
<!-- Generator: Adobe Illustrator 19.1.0, SVG Export Plug-In . SVG Version: 6.00 Build 0)  -->
<svg version="1.1" id="Capa_1" xmlns="http://www.w3.org/2000/svg" xmlns:xlink="http://www.w3.org/1999/xlink" x="0px" y="0px"
	 viewBox="0 0 435.48 435.48" style="enable-background:new 0 0 435.48 435.48;" xml:space="preserve">
<g>
	<g id="XMLID_13_">
		<g>
			<path style="fill:#4785DD;" d="M420.23,95.929v283.85H15.25V95.929H420.23z M411.23,332.409v-208.97
				c0-10.21-8.31-18.51-18.51-18.51H42.75c-10.2,0-18.5,8.3-18.5,18.51v208.97c0,10.2,8.3,18.51,18.5,18.51h349.97
				C402.92,350.919,411.23,342.609,411.23,332.409z M411.23,365.919c0-4.15-3.36-7.5-7.5-7.5h-12c-4.15,0-7.5,3.35-7.5,7.5
				c0,4.14,3.35,7.5,7.5,7.5h12C407.87,373.419,411.23,370.059,411.23,365.919z M378.23,365.919c0-4.15-3.36-7.5-7.5-7.5h-12
				c-4.14,0-7.5,3.35-7.5,7.5c0,4.14,3.36,7.5,7.5,7.5h12C374.87,373.419,378.23,370.059,378.23,365.919z"/>
			<path d="M435.23,88.429v298.85c0,4.14-3.36,7.5-7.5,7.5H7.75c-4.14,0-7.5-3.36-7.5-7.5V88.429c0-4.14,3.36-7.5,7.5-7.5h155.2
				l-47.89-26.14c-3.64-1.99-4.98-6.54-2.99-10.18c1.98-3.64,6.54-4.97,10.17-2.99l72.02,39.31h46.96l72.01-39.31
				c3.64-1.98,8.2-0.65,10.18,2.99c1.98,3.64,0.65,8.19-2.99,10.18l-47.89,26.14h155.2C431.87,80.929,435.23,84.289,435.23,88.429z
				 M420.23,379.779V95.929H15.25v283.85H420.23z"/>
			<path d="M411.23,123.439v208.97c0,10.2-8.31,18.51-18.51,18.51H42.75c-10.2,0-18.5-8.31-18.5-18.51v-208.97
				c0-10.21,8.3-18.51,18.5-18.51h349.97C402.92,104.929,411.23,113.229,411.23,123.439z M396.23,332.409v-208.97
				c0-1.94-1.58-3.51-3.51-3.51H307.5l-160.83,215.99h246.05C394.65,335.919,396.23,334.339,396.23,332.409z M127.97,335.919
				l160.83-215.99H42.75c-1.93,0-3.5,1.57-3.5,3.51v208.97c0,1.93,1.57,3.51,3.5,3.51H127.97z"/>
			<path d="M403.73,358.419c4.14,0,7.5,3.35,7.5,7.5c0,4.14-3.36,7.5-7.5,7.5h-12c-4.15,0-7.5-3.36-7.5-7.5c0-4.15,3.35-7.5,7.5-7.5
				H403.73z"/>
			<path d="M370.73,358.419c4.14,0,7.5,3.35,7.5,7.5c0,4.14-3.36,7.5-7.5,7.5h-12c-4.14,0-7.5-3.36-7.5-7.5c0-4.15,3.36-7.5,7.5-7.5
				H370.73z"/>
		</g>
		<g>
		</g>
	</g>
</g>
<g>
</g>
<g>
</g>
<g>
</g>
<g>
</g>
<g>
</g>
<g>
</g>
<g>
</g>
<g>
</g>
<g>
</g>
<g>
</g>
<g>
</g>
<g>
</g>
<g>
</g>
<g>
</g>
<g>
</g>
</svg>
